# ProBuilder 5.0.7
# https://unity3d.com/unity/features/worldbuilding/probuilder
# 16.12.2023 20:56:32

mtllib ./trasa_giga_mega_super_dziala.mtl
o trasa giga mega super dziala

g trasa giga mega super dziala
v -136.3409 -250.5424 -443.0054
v -136.3409 -250.5424 -273.0791
v -1495.044 -250.5424 -443.0054
v -1495.044 -250.5424 -273.0791
v -1555.045 -250.5424 -431.9204
v -1509.912 -250.5424 -268.0977
v -1604.768 -250.5424 -411.3452
v -1523.679 -250.5424 -262.0146
v -1645.317 -250.5424 -383.7124
v -1533.508 -250.5424 -255.752
v -1684.458 -250.5424 -336.8389
v -1539.19 -250.5424 -248.6782
v -1709.194 -250.5424 -242.1709
v -1539.322 -250.5424 -237.8315
v -1709.194 -250.5424 1947.563
v -1539.322 -250.5424 1951.902
v -1693.774 -250.5424 2031.691
v -1535.401 -250.5424 1970.103
v -1673.838 -250.5424 2073.644
v -1531.834 -250.5424 1980.316
v -1644.779 -250.5424 2112.702
v -1524.509 -250.5424 1992.66
v -1595.239 -250.5424 2150.25
v -1518 -250.5424 1998.892
v -1505.009 -250.5424 2169.584
v -1506.998 -250.5424 1999.669
v -271.6746 -250.5424 2169.584
v -273.6644 -250.5424 1999.669
v 8.853455 -250.5424 -444.3208
v 1386.782 -250.5424 -444.3208
v 7.165588 -250.5424 -444.3208
v 1385.094 -250.5424 -444.3208
v 1386.782 -250.5424 -274.3945
v 1385.094 -250.5424 -274.3945
v 8.853455 -250.5424 -274.3945
v 7.165588 -250.5424 -274.3945
v -63.74377 -250.5424 -273.7373
v -63.74377 -250.5424 -443.6636
v -65.43164 -250.5424 -273.7373
v -65.43164 -250.5424 -443.6636
v 150.6085 -250.5424 1999.669
v 152.5983 -250.5424 2169.584
v 152.5983 -250.5424 2217.449
v -271.6746 -250.5424 2217.449
v -273.6644 -250.5424 1950.389
v 150.6085 -250.5424 1950.389
v 285.3724 -67.96716 -145.1992
v 285.3724 -67.96716 -72.59961
v -373.5828 61.01208 -145.1992
v -373.5828 61.01208 -72.59961
v 285.3724 -67.96716 0
v -373.5828 61.01208 0
v -560.5394 59.42688 -145.1992
v -560.5394 59.42688 -72.59961
v -560.5394 59.42688 0
v 316.9722 -67.96716 -67.34277
v 293.7594 -67.96716 1.445801
v 340.1849 -67.96716 -136.1318
v 343.6449 -67.96716 -55.92383
v 301.7527 -67.96716 3.370117
v 385.5374 -67.96716 -115.2178
v 366.4149 -67.96716 -35.20898
v 308.5247 -67.96716 8.602539
v 424.3054 -67.96716 -79.02051
v 385.6265 -67.96716 5.279297
v 313.6154 -67.96716 14.50635
v 457.6377 -67.96716 -3.947266
v 385.382 -67.96716 431.9644
v 312.8817 -67.96716 428.1626
v 457.8823 -67.96716 435.7661
v 396.6541 -67.96716 474.7686
v 331.7108 -67.96716 507.2207
v 461.5972 -67.96716 442.3164
v 410.8315 -67.96716 493.7407
v 358.4275 -67.96716 543.9854
v 463.2356 -67.96716 443.4951
v 422.2852 -67.96716 500.6719
v 377.3745 -67.96716 557.7134
v 467.1956 -67.96716 443.6294
v 1072.351 -122.6721 515.1211
v 1069.614 -122.6721 587.6689
v 1075.088 -122.6721 442.5723
v 1134.41 -122.6721 456.5459
v 1106.226 -122.6721 523.4526
v 1078.043 -122.6721 590.3584
v 1177.61 -122.6721 483.1143
v 1132.718 -122.6721 540.1719
v 1087.827 -122.6721 597.2285
v 1236.912 -122.6721 570.2822
v 1166.276 -122.6721 587.0566
v 1095.641 -122.6721 603.8311
v 1239.836 -122.6721 610.6494
v 1167.251 -122.6721 609.1807
v 1094.666 -122.6721 607.7109
v 1239.836 -219.1622 1471.962
v 1167.251 -219.1622 1470.493
v 1094.666 -219.1622 1469.023
v 1227.198 -219.1622 1532.079
v 1159.888 -219.1622 1504.871
v 1092.58 -219.1622 1477.664
v 1198.491 -219.1622 1583.567
v 1143.807 -219.1622 1535.813
v 1089.125 -219.1622 1488.058
v 1140.806 -219.1622 1627.112
v 1111.15 -219.1622 1560.846
v 1081.494 -219.1622 1494.579
v 1077.212 -219.1622 1644.438
v 1074.771 -219.1622 1571.88
v 1072.331 -219.1622 1499.32
v 50.97107 -219.1622 1644.438
v 48.53003 -219.1622 1571.88
v 46.0896 -219.1622 1499.32
v -14.1955 -219.1622 1633.009
v 8.565002 -219.1622 1564.068
v 31.32611 -219.1622 1495.129
v -62.81842 -219.1622 1604.495
v -21.01855 -219.1622 1545.136
v 20.78186 -219.1622 1485.776
v -95.84198 -219.1622 1570.613
v -41.12897 -219.1622 1522.893
v 13.58453 -219.1622 1475.172
v -117.5742 -219.1622 1533.496
v -53.22461 -219.1622 1499.882
v 11.12524 -219.1622 1466.268
v -133.1534 -219.1622 1452.966
v -60.55621 -219.1622 1453.624
v 12.04095 -219.1622 1454.282
v -133.1534 -250.5425 -274.3945
v -60.55621 -250.5425 -273.7373
v 12.04095 -250.5425 -273.0791
v -60.55621 -250.5425 -443.6636
v 12.04095 -250.5425 -443.0054
v -133.1534 -250.5425 -444.3208
v 1370.744 -250.5425 -443.0054
v 1370.744 -250.5425 -273.0791
v -1511.082 -250.5425 -274.3945
v -1511.082 -250.5425 -444.3208
v 1430.745 -250.5425 -431.9204
v 1385.612 -250.5425 -268.0977
v 1480.468 -250.5425 -411.3452
v 1399.379 -250.5425 -262.0146
v 1521.017 -250.5425 -383.7124
v 1409.208 -250.5425 -255.752
v 1560.157 -250.5425 -336.8389
v 1414.89 -250.5425 -248.6782
v 1584.894 -250.5425 -242.1709
v 1415.022 -250.5425 -237.8315
v 1584.894 -250.5425 1947.563
v 1415.022 -250.5425 1951.902
v 1569.474 -250.5425 2031.691
v 1411.101 -250.5425 1970.103
v 1549.538 -250.5425 2073.644
v 1407.534 -250.5425 1980.316
v 1520.479 -250.5425 2112.702
v 1400.208 -250.5425 1992.66
v 1470.939 -250.5425 2150.25
v 1393.7 -250.5425 1998.892
v 1380.708 -250.5425 2169.584
v 1382.698 -250.5425 1999.669
v 147.3746 -250.5425 2169.584
v 149.3644 -250.5425 1999.669

vt 136.3409 -443.0054
vt 136.3409 -273.0791
vt 1495.044 -443.0054
vt 1495.044 -273.0791
vt 1555.045 -431.9204
vt 1509.912 -268.0977
vt 1604.768 -411.3452
vt 1523.679 -262.0146
vt 1645.317 -383.7124
vt 1533.508 -255.752
vt 1684.458 -336.8389
vt 1539.19 -248.6782
vt 1709.194 -242.1709
vt 1539.322 -237.8315
vt 1709.194 1947.563
vt 1539.322 1951.902
vt 1693.774 2031.691
vt 1535.401 1970.103
vt 1673.838 2073.644
vt 1531.834 1980.316
vt 1644.779 2112.702
vt 1524.509 1992.66
vt 1595.239 2150.25
vt 1518 1998.892
vt 1505.009 2169.584
vt 1506.998 1999.669
vt 271.6746 2169.584
vt 273.6644 1999.669
vt -8.853455 -444.3208
vt -1386.782 -444.3208
vt -7.165588 -444.3208
vt -1385.094 -444.3208
vt -1386.782 -274.3945
vt -1385.094 -274.3945
vt -8.853455 -274.3945
vt -7.165588 -274.3945
vt -63.74377 -273.7373
vt -63.74377 -443.6636
vt -65.43164 -273.7373
vt -65.43164 -443.6636
vt 8.853455 -444.3208
vt 7.165588 -444.3208
vt 63.74377 -273.7373
vt 65.43164 -273.7373
vt -150.6085 1999.669
vt -152.5983 2169.584
vt -152.5983 2217.449
vt 271.6746 2217.449
vt 273.6644 1950.389
vt -150.6085 1950.389
vt -415.0991 -145.1992
vt -415.0991 -72.59961
vt 256.3602 -145.1992
vt 256.3602 -72.59961
vt -415.0991 0
vt 256.3602 0
vt 248.7565 -145.1992
vt 248.7565 -72.59961
vt 435.7199 -145.1992
vt 435.7199 -72.59961
vt 248.7565 0
vt 435.7199 0
vt -409.6725 -72.59961
vt -409.6725 -3.814697E-06
vt -441.2721 -67.34277
vt -418.0594 1.445801
vt -409.6725 -145.1992
vt -464.4849 -136.1318
vt -467.9449 -55.92383
vt -426.0527 3.370117
vt -509.8374 -115.2178
vt -490.7149 -35.20898
vt -432.8246 8.602539
vt -548.6054 -79.0205
vt -509.9265 5.279297
vt -437.9153 14.50635
vt -548.6054 -79.02051
vt -581.9377 -3.947258
vt -509.6819 431.9644
vt -437.1817 428.1626
vt -582.1823 435.7661
vt -520.954 474.7684
vt -456.0108 507.2205
vt -585.8971 442.3164
vt -520.9541 474.7686
vt -520.954 474.7686
vt -456.0109 507.2208
vt -535.1315 493.7408
vt -482.7275 543.9856
vt -587.5355 443.4951
vt -482.7274 543.9854
vt -546.5851 500.6719
vt -501.6744 557.7134
vt -535.1315 493.7405
vt -591.4956 443.6294
vt -550.3275 501.0897
vt -505.5696 558.2512
vt -1202.691 515.5695
vt -1199.963 587.9797
vt -595.2086 443.5554
vt -550.4794 500.74
vt -1205.558 442.4957
vt -1202.832 514.8811
vt -1199.388 442.5723
vt -1196.651 515.1211
vt -1258.71 456.5459
vt -1230.526 523.4526
vt -1196.651 515.1208
vt -1193.914 587.6692
vt -1230.526 523.4525
vt -1202.343 590.3586
vt -1301.91 483.1143
vt -1257.018 540.1719
vt -1212.127 597.2288
vt -1361.212 570.2822
vt -1290.576 587.0566
vt -1212.127 597.2283
vt -1290.576 587.0565
vt -1219.941 603.8308
vt -1361.212 570.282
vt -1364.136 610.6494
vt -1291.551 609.1807
vt -1291.551 609.1804
vt -1218.966 607.7107
vt -1363.855 620.8545
vt -1291.269 619.3766
vt -1363.636 1487.555
vt -1291.051 1486.077
vt -1218.685 617.8979
vt -1218.466 1484.598
vt -1364.136 1471.962
vt -1291.551 1470.493
vt -1351.498 1532.079
vt -1284.188 1504.871
vt -1291.551 1470.493
vt -1218.966 1469.023
vt -1284.188 1504.871
vt -1216.88 1477.664
vt -1322.791 1583.567
vt -1268.107 1535.813
vt -1213.424 1488.058
vt -1322.791 1583.568
vt -1265.106 1627.113
vt -1235.45 1560.846
vt -1268.107 1535.813
vt -1205.794 1494.579
vt -1201.512 1644.439
vt -1199.071 1571.88
vt -1205.794 1494.579
vt -1199.071 1571.88
vt -1196.63 1499.32
vt -175.271 1644.439
vt -172.83 1571.879
vt -1196.631 1499.321
vt -172.8301 1571.88
vt -170.3896 1499.321
vt -175.2711 1644.439
vt -172.83 1571.88
vt -110.1045 1633.009
vt -132.865 1564.069
vt -132.865 1564.068
vt -155.6261 1495.129
vt -110.1045 1633.009
vt -61.48157 1604.495
vt -103.2814 1545.136
vt -145.0818 1485.776
vt -28.45801 1570.613
vt -83.17102 1522.892
vt -145.0818 1485.777
vt -83.17102 1522.893
vt -137.8845 1475.172
vt -6.72583 1533.496
vt -71.07538 1499.882
vt -137.8845 1475.172
vt -135.4252 1466.268
vt 8.853447 1452.966
vt -63.74379 1453.624
vt -135.4252 1466.267
vt -63.74377 1453.624
vt -136.3409 1454.282
vt 8.817398 1448.746
vt -63.77953 1449.404
vt 8.811935 -278.9
vt -63.785 -278.2427
vt -136.3767 1450.062
vt -63.78535 -278.2427
vt -136.3822 -277.5844
vt -136.3409 -273.0791
vt -136.3409 -443.0054
vt 8.853455 -274.3945
vt -1495.044 -443.0054
vt -1495.044 -273.0791
vt 8.853516 -274.3943
vt 8.853516 -444.3208
vt 1386.782 -274.3945
vt 1386.782 -444.321
vt -1555.045 -431.9204
vt -1509.912 -268.0977
vt -1604.768 -411.3452
vt -1523.679 -262.0146
vt -1645.317 -383.7124
vt -1533.508 -255.752
vt -1684.458 -336.8389
vt -1539.19 -248.6782
vt -1709.194 -242.1709
vt -1539.322 -237.8315
vt -1709.194 1947.563
vt -1539.322 1951.902
vt -1693.774 2031.691
vt -1535.401 1970.103
vt -1673.838 2073.644
vt -1531.835 1980.316
vt -1531.834 1980.316
vt -1644.779 2112.702
vt -1524.509 1992.66
vt -1595.239 2150.25
vt -1518 1998.892
vt -1505.009 2169.584
vt -1506.998 1999.669
vt -271.6746 2169.584
vt -273.6643 1999.669

vn 0 1 0
vn 0 0 0
vn 0 -1 0
vn 0.1920879 0.9813777 0
vn -0.008478694 0.9999641 0
vn 0.0822511 0.9945055 0.06475899
vn 0.08045179 0.9957016 0.03386331
vn 0.07865247 0.9968977 0.002967638
vn 0.08952765 0.993487 0.07048647
vn 0.086657 0.9949828 0.03682346
vn 0.08378634 0.9964787 0.003160456
vn -0.002252732 0.993781 0.1113301
vn 0.0001645581 0.999835 -0.01816359

usemtl ProBuilderDefault
f 1/1/1 3/3/1 4/4/1 2/2/1
f 3/3/1 5/5/1 6/6/1 4/4/1
f 5/5/1 7/7/1 8/8/1 6/6/1
f 7/7/1 9/9/1 10/10/1 8/8/1
f 9/9/1 11/11/1 12/12/1 10/10/1
f 11/11/1 13/13/1 14/14/1 12/12/1
f 13/13/1 15/15/1 16/16/1 14/14/1
f 15/15/1 17/17/1 18/18/1 16/16/1
f 17/17/1 19/19/1 20/20/1 18/18/1
f 19/19/1 21/21/1 22/22/1 20/20/1
f 21/21/1 23/23/1 24/24/1 22/22/1
f 23/23/1 25/25/1 26/26/1 24/24/1
f 25/25/1 27/27/1 28/28/1 26/26/1
f 31/31/2 32/32/2 30/30/2 29/29/2
f 32/32/1 34/34/1 33/33/1 30/30/1
f 34/34/2 36/36/2 35/35/2 33/33/2
f 39/39/3 40/40/3 38/38/3 37/37/3
f 40/40/3 31/42/3 29/41/3 38/38/3
f 36/36/1 39/44/1 37/43/1 35/35/1
f 42/46/1 41/45/1 28/28/1 27/27/1
f 44/48/1 43/47/1 42/46/1 27/27/1
f 46/50/1 45/49/1 28/28/1 41/45/1
f 49/53/4 50/54/4 48/52/4 47/51/4
f 50/54/4 52/56/4 51/55/4 48/52/4
f 53/59/5 54/60/5 50/58/5 49/57/5
f 54/60/5 55/62/5 52/61/5 50/58/5
f 57/66/1 56/65/1 48/63/1 51/64/1
f 56/65/1 58/68/1 47/67/1 48/63/1
f 60/70/1 59/69/1 56/65/1 57/66/1
f 59/69/1 61/71/1 58/68/1 56/65/1
f 63/73/1 62/72/1 59/69/1 60/70/1
f 62/72/1 64/74/1 61/71/1 59/69/1
f 66/76/1 65/75/1 62/72/1 63/73/1
f 65/75/1 67/78/1 64/77/1 62/72/1
f 69/80/1 68/79/1 65/75/1 66/76/1
f 68/79/1 70/81/1 67/78/1 65/75/1
f 72/83/1 71/82/1 68/79/1 69/80/1
f 71/85/1 73/84/1 70/81/1 68/79/1
f 75/89/1 74/88/1 71/86/1 72/87/1
f 74/88/1 76/90/1 73/84/1 71/86/1
f 78/93/1 77/92/1 74/88/1 75/91/1
f 77/92/1 79/95/1 76/90/1 74/94/1
f 81/99/8 80/98/7 77/96/6 78/97/7
f 80/103/11 82/102/10 79/100/9 77/101/10
f 84/107/1 83/106/1 82/104/1 80/105/1
f 85/111/1 84/110/1 80/108/1 81/109/1
f 87/113/1 86/112/1 83/106/1 84/107/1
f 88/114/1 87/113/1 84/107/1 85/111/1
f 90/116/1 89/115/1 86/112/1 87/113/1
f 91/119/1 90/118/1 87/113/1 88/117/1
f 93/122/1 92/121/1 89/120/1 90/118/1
f 94/124/1 93/123/1 90/116/1 91/119/1
f 96/128/12 95/127/12 92/125/12 93/126/12
f 97/130/12 96/128/12 93/126/12 94/129/12
f 99/134/1 98/133/1 95/131/1 96/132/1
f 100/138/1 99/137/1 96/135/1 97/136/1
f 102/140/1 101/139/1 98/133/1 99/137/1
f 103/141/1 102/140/1 99/137/1 100/138/1
f 105/144/1 104/143/1 101/142/1 102/140/1
f 106/146/1 105/144/1 102/145/1 103/141/1
f 108/148/1 107/147/1 104/143/1 105/144/1
f 109/151/1 108/150/1 105/144/1 106/149/1
f 111/153/1 110/152/1 107/147/1 108/150/1
f 112/156/1 111/155/1 108/148/1 109/154/1
f 114/160/1 113/159/1 110/157/1 111/158/1
f 115/162/1 114/161/1 111/155/1 112/156/1
f 117/165/1 116/164/1 113/163/1 114/161/1
f 118/166/1 117/165/1 114/160/1 115/162/1
f 120/168/1 119/167/1 116/164/1 117/165/1
f 121/171/1 120/170/1 117/165/1 118/169/1
f 123/173/1 122/172/1 119/167/1 120/168/1
f 124/175/1 123/173/1 120/168/1 121/174/1
f 126/177/1 125/176/1 122/172/1 123/173/1
f 127/180/1 126/179/1 123/173/1 124/178/1
f 129/184/13 128/183/13 125/181/13 126/182/13
f 130/187/13 129/186/13 126/182/13 127/185/13
f 132/189/1 131/38/1 129/37/1 130/188/1
f 131/38/1 133/41/1 128/190/1 129/37/1
f 135/192/1 134/191/1 132/189/1 130/188/1
f 137/196/1 136/195/1 128/193/1 133/194/1
f 139/198/1 138/197/1 134/191/1 135/192/1
f 141/200/1 140/199/1 138/197/1 139/198/1
f 143/202/1 142/201/1 140/199/1 141/200/1
f 145/204/1 144/203/1 142/201/1 143/202/1
f 147/206/1 146/205/1 144/203/1 145/204/1
f 149/208/1 148/207/1 146/205/1 147/206/1
f 151/210/1 150/209/1 148/207/1 149/208/1
f 153/212/1 152/211/1 150/209/1 151/210/1
f 155/215/1 154/214/1 152/211/1 153/213/1
f 157/217/1 156/216/1 154/214/1 155/215/1
f 159/219/1 158/218/1 156/216/1 157/217/1
f 161/221/1 160/220/1 158/218/1 159/219/1

